<?xml version="1.0" encoding="UTF-8"?>
<svg version="1.1" xmlns="http://www.w3.org/2000/svg" width="80" height="80">
<path d="M0 0 C26.4 0 52.8 0 80 0 C80 26.4 80 52.8 80 80 C53.6 80 27.2 80 0 80 C0 53.6 0 27.2 0 0 Z " fill="#FEFEFE" transform="translate(0,0)"/>
<path d="M0 0 C0 1.32 0 2.64 0 4 C0.66 4 1.32 4 2 4 C2 5.32 2 6.64 2 8 C2.66 8 3.32 8 4 8 C4 9.98 4 11.96 4 14 C5.32 14 6.64 14 8 14 C8 14.66 8 15.32 8 16 C7.34 16 6.68 16 6 16 C6 21.28 6 26.56 6 32 C6.66 32 7.32 32 8 32 C8 32.66 8 33.32 8 34 C7.34 34 6.68 34 6 34 C6 36.64 6 39.28 6 42 C6.66 42 7.32 42 8 42 C8 42.66 8 43.32 8 44 C7.34 44 6.68 44 6 44 C6 47.96 6 51.92 6 56 C-8.52 56 -23.04 56 -38 56 C-38 52.04 -38 48.08 -38 44 C-38.66 44 -39.32 44 -40 44 C-40 43.34 -40 42.68 -40 42 C-39.34 42 -38.68 42 -38 42 C-38 39.36 -38 36.72 -38 34 C-38.66 34 -39.32 34 -40 34 C-40 33.34 -40 32.68 -40 32 C-39.34 32 -38.68 32 -38 32 C-38 26.72 -38 21.44 -38 16 C-38.66 16 -39.32 16 -40 16 C-40 15.34 -40 14.68 -40 14 C-38.68 14 -37.36 14 -36 14 C-36 12.02 -36 10.04 -36 8 C-35.34 8 -34.68 8 -34 8 C-34 6.68 -34 5.36 -34 4 C-33.34 4 -32.68 4 -32 4 C-32 2.68 -32 1.36 -32 0 C-21.10693524 -3.53126825 -10.85797275 -3.98563048 0 0 Z " fill="#8C8F92" transform="translate(56,18)"/>
<path d="M0 0 C2.4375 1.9375 2.4375 1.9375 4 5 C4.30936646 8.03280558 4.23810226 10.96419621 4 14 C4.66 14 5.32 14 6 14 C6 12.68 6 11.36 6 10 C8.64 10 11.28 10 14 10 C14.79706768 13.49992696 15.11863027 16.7142231 15.09765625 20.30078125 C15.09515869 21.18161377 15.09266113 22.06244629 15.09008789 22.9699707 C15.08098389 24.07300537 15.07187988 25.17604004 15.0625 26.3125 C15.041875 29.839375 15.02125 33.36625 15 37 C5.76 37 -3.48 37 -13 37 C-12.67 33.04 -12.34 29.08 -12 25 C-12.66 24.67 -13.32 24.34 -14 24 C-13.34 24 -12.68 24 -12 24 C-12 21.03 -12 18.06 -12 15 C-12.66 14.67 -13.32 14.34 -14 14 C-13.34 14 -12.68 14 -12 14 C-12.05800781 13.32453125 -12.11601562 12.6490625 -12.17578125 11.953125 C-12.54307578 4.69118736 -12.54307578 4.69118736 -9.9375 1.375 C-6.24844476 -0.35179182 -4.02604587 -0.65880751 0 0 Z " fill="#43484D" transform="translate(44,36)"/>
<path d="M0 0 C-3.84944046 2.56629364 -5.52134019 1.98044824 -10.0625 1.5 C-16.1993289 0.94986811 -22.14783878 0.77617874 -28 3 C-28.33 3.66 -28.66 4.32 -29 5 C-20.09 5 -11.18 5 -2 5 C-2 5.33 -2 5.66 -2 6 C-11.57 6 -21.14 6 -31 6 C-31 6.99 -31 7.98 -31 9 C-20.77 9 -10.54 9 0 9 C0 9.33 0 9.66 0 10 C-10.89 10 -21.78 10 -33 10 C-33 11.65 -33 13.3 -33 15 C-21.45 15 -9.9 15 2 15 C2 15.33 2 15.66 2 16 C-10.21 16 -22.42 16 -35 16 C-35 21.61 -35 27.22 -35 33 C-34.34 33 -33.68 33 -33 33 C-33 31.68 -33 30.36 -33 29 C-31.02 29 -29.04 29 -27 29 C-28.32 29.33 -29.64 29.66 -31 30 C-31 38.25 -31 46.5 -31 55 C-30.01 55.33 -29.02 55.66 -28 56 C-30.97 56 -33.94 56 -37 56 C-37 52.37 -37 48.74 -37 45 C-37.66 45 -38.32 45 -39 45 C-39 44.34 -39 43.68 -39 43 C-38.34 43 -37.68 43 -37 43 C-37 40.36 -37 37.72 -37 35 C-37.66 35 -38.32 35 -39 35 C-39 34.34 -39 33.68 -39 33 C-38.34 33 -37.68 33 -37 33 C-37 27.72 -37 22.44 -37 17 C-37.66 17 -38.32 17 -39 17 C-39 16.34 -39 15.68 -39 15 C-37.68 15 -36.36 15 -35 15 C-35 13.02 -35 11.04 -35 9 C-34.34 9 -33.68 9 -33 9 C-33 7.68 -33 6.36 -33 5 C-32.34 5 -31.68 5 -31 5 C-31 3.68 -31 2.36 -31 1 C-20.40843513 -2.43352927 -10.84363768 -2.35114387 0 0 Z " fill="#5C6063" transform="translate(55,17)"/>
<path d="M0 0 C1.67578125 1.23046875 1.67578125 1.23046875 3 3 C3.29296875 5.26171875 3.29296875 5.26171875 3.1875 7.6875 C3.16042969 8.49574219 3.13335937 9.30398437 3.10546875 10.13671875 C3.07066406 10.75160156 3.03585938 11.36648437 3 12 C2.34 12 1.68 12 1 12 C1 12.66 1 13.32 1 14 C1.66 14 2.32 14 3 14 C3 16.64 3 19.28 3 22 C2.34 22 1.68 22 1 22 C1 22.66 1 23.32 1 24 C1.66 24 2.32 24 3 24 C3 27.3 3 30.6 3 34 C-0.96 34 -4.92 34 -9 34 C-9 30.7 -9 27.4 -9 24 C-8.34 24 -7.68 24 -7 24 C-7 23.34 -7 22.68 -7 22 C-7.66 22 -8.32 22 -9 22 C-9 19.36 -9 16.72 -9 14 C-8.34 14 -7.68 14 -7 14 C-7 13.34 -7 12.68 -7 12 C-7.66 12 -8.32 12 -9 12 C-9.08131463 10.56344146 -9.13933559 9.1255517 -9.1875 7.6875 C-9.22230469 6.88699219 -9.25710937 6.08648437 -9.29296875 5.26171875 C-9 3 -9 3 -7.67578125 1.23046875 C-5.08865228 -0.6691714 -3.11047001 -0.38880875 0 0 Z " fill="#F9FAFA" transform="translate(43,38)"/>
<path d="M0 0 C13.2 0 26.4 0 40 0 C40 5.28 40 10.56 40 16 C39.34 16 38.68 16 38 16 C38 14.68 38 13.36 38 12 C35.36 12 32.72 12 30 12 C30 13.32 30 14.64 30 16 C29.34 16 28.68 16 28 16 C27.96261719 15.39671875 27.92523438 14.7934375 27.88671875 14.171875 C27.59857439 10.66894358 27.29548065 7.67303925 25.875 4.4375 C22.91499982 2.16816653 20.60720018 2.5570105 17 3 C14.74596487 4.1188498 14.74596487 4.1188498 13 6 C12.3049261 8.49407252 12.3049261 8.49407252 12.25 11.1875 C12.19328125 12.08855469 12.1365625 12.98960938 12.078125 13.91796875 C12.05234375 14.60503906 12.0265625 15.29210938 12 16 C11.34 16 10.68 16 10 16 C10 14.68 10 13.36 10 12 C7.36 12 4.72 12 2 12 C2 13.32 2 14.64 2 16 C1.34 16 0.68 16 0 16 C0 10.72 0 5.44 0 0 Z " fill="#F3F5F6" transform="translate(20,34)"/>
<path d="M0 0 C0 1.65 0 3.3 0 5 C0.66 5 1.32 5 2 5 C2 11.93 2 18.86 2 26 C16.85 26.495 16.85 26.495 32 27 C32 27.33 32 27.66 32 28 C17.48 28 2.96 28 -12 28 C-12 27.67 -12 27.34 -12 27 C-10.02 26.67 -8.04 26.34 -6 26 C-6 17.75 -6 9.5 -6 1 C-2 0 -2 0 0 0 Z " fill="#868B90" transform="translate(30,46)"/>
<path d="M0 0 C1.9375 2 1.9375 2 3 4 C2.01 4 1.02 4 0 4 C-0.33 3.67 -0.66 3.34 -1 3 C-3.95817107 2.74994614 -3.95817107 2.74994614 -7 3 C-9.39763185 5.39763185 -9.34280586 6.33273498 -9.625 9.625 C-9.69976562 10.44226562 -9.77453125 11.25953125 -9.8515625 12.1015625 C-9.90054688 12.72804688 -9.94953125 13.35453125 -10 14 C-9.34 14 -8.68 14 -8 14 C-8 14.66 -8 15.32 -8 16 C-8.66 16 -9.32 16 -10 16 C-10 18.64 -10 21.28 -10 24 C-9.34 24 -8.68 24 -8 24 C-8 24.66 -8 25.32 -8 26 C-8.66 26 -9.32 26 -10 26 C-10 29.3 -10 32.6 -10 36 C-6.37 36 -2.74 36 1 36 C1 36.33 1 36.66 1 37 C-3.62 37 -8.24 37 -13 37 C-12.67 33.04 -12.34 29.08 -12 25 C-12.66 24.67 -13.32 24.34 -14 24 C-13.34 24 -12.68 24 -12 24 C-12 21.03 -12 18.06 -12 15 C-12.66 14.67 -13.32 14.34 -14 14 C-13.34 14 -12.68 14 -12 14 C-12.05800781 13.32453125 -12.11601562 12.6490625 -12.17578125 11.953125 C-12.54307578 4.69118736 -12.54307578 4.69118736 -9.9375 1.375 C-6.29250587 -0.33116746 -3.97839551 -0.58939193 0 0 Z " fill="#44494D" transform="translate(44,36)"/>
<path d="M0 0 C0.66 0.33 1.32 0.66 2 1 C2 3.97 2 6.94 2 10 C2.66 10 3.32 10 4 10 C4 17.26 4 24.52 4 32 C1.525 32.495 1.525 32.495 -1 33 C-0.67 29.37 -0.34 25.74 0 22 C-0.66 22 -1.32 22 -2 22 C-2 21.34 -2 20.68 -2 20 C-1.34 20 -0.68 20 0 20 C0 17.36 0 14.72 0 12 C-0.66 12 -1.32 12 -2 12 C-2 11.34 -2 10.68 -2 10 C-1.34 10 -0.68 10 0 10 C0 6.7 0 3.4 0 0 Z " fill="#7B8083" transform="translate(46,40)"/>
<path d="M0 0 C11.88 0 23.76 0 36 0 C36 0.99 36 1.98 36 3 C24.12 3 12.24 3 0 3 C0 2.01 0 1.02 0 0 Z " fill="#FDFFFF" transform="translate(22,28)"/>
<path d="M0 0 C0 0.66 0 1.32 0 2 C-9.24 2 -18.48 2 -28 2 C-27.67 1.01 -27.34 0.02 -27 -1 C-17.42754571 -3.46439781 -9.36438798 -3.05360477 0 0 Z " fill="#E2E7E8" transform="translate(54,20)"/>
<path d="M0 0 C1.32 0 2.64 0 4 0 C4 7.92 4 15.84 4 24 C2.68 24 1.36 24 0 24 C0 16.08 0 8.16 0 0 Z " fill="#FBFBFB" transform="translate(52,48)"/>
<path d="M0 0 C1.32 0 2.64 0 4 0 C4 7.92 4 15.84 4 24 C2.68 24 1.36 24 0 24 C0 16.08 0 8.16 0 0 Z " fill="#FBFBFB" transform="translate(24,48)"/>
<path d="M0 0 C1.98 0 3.96 0 6 0 C4.68 0.33 3.36 0.66 2 1 C2 9.25 2 17.5 2 26 C2.99 26.33 3.98 26.66 5 27 C3.02 27 1.04 27 -1 27 C-1.02905924 23.2500163 -1.04681874 19.50006163 -1.0625 15.75 C-1.07087891 14.68652344 -1.07925781 13.62304688 -1.08789062 12.52734375 C-1.09111328 11.50253906 -1.09433594 10.47773437 -1.09765625 9.421875 C-1.10289307 8.47924805 -1.10812988 7.53662109 -1.11352539 6.56542969 C-1.00968082 4.21876563 -0.66706529 2.24355522 0 0 Z " fill="#40464B" transform="translate(22,46)"/>
<path d="M0 0 C-3.86850786 2.57900524 -5.67789568 2.00422721 -10.25 1.5625 C-14.29561493 1.17662307 -17.71156906 0.95444239 -21.734375 1.58984375 C-25.08238879 2.01034787 -26.26701609 1.85842906 -29 0 C-19.33001643 -2.69600924 -9.75767537 -2.14192874 0 0 Z " fill="#686D6E" transform="translate(55,17)"/>
<path d="M0 0 C1.9375 2 1.9375 2 3 4 C2.01 4 1.02 4 0 4 C-0.33 3.67 -0.66 3.34 -1 3 C-3.83073436 2.49830585 -3.83073436 2.49830585 -7 3 C-9.87640616 5.37500791 -9.87640616 5.37500791 -12 8 C-11.68306247 5.06832781 -11.36774166 3.41017339 -9.375 1.1875 C-6.0426214 -0.4786893 -3.67105292 -0.46722492 0 0 Z " fill="#5A5B5F" transform="translate(44,36)"/>
<path d="M0 0 C1.67542976 0.28604898 3.34385343 0.61781233 5 1 C4.67 2.32 4.34 3.64 4 5 C2.68 5 1.36 5 0 5 C-0.5625 3.0625 -0.5625 3.0625 -1 1 C-0.67 0.67 -0.34 0.34 0 0 Z " fill="#626669" transform="translate(52,37)"/>
<path d="M0 0 C1.67542976 0.28604898 3.34385343 0.61781233 5 1 C4.67 2.32 4.34 3.64 4 5 C2.68 5 1.36 5 0 5 C-0.5625 3.0625 -0.5625 3.0625 -1 1 C-0.67 0.67 -0.34 0.34 0 0 Z " fill="#626669" transform="translate(24,37)"/>
<path d="M0 0 C-4.1795645 2.78637633 -6.14668677 1.79562512 -11 1 C-11 0.67 -11 0.34 -11 0 C-7.01803543 -1.05404945 -4.01804691 -0.84098656 0 0 Z " fill="#6F7477" transform="translate(37,17)"/>
</svg>
