<?xml version="1.0" encoding="UTF-8"?>
<svg version="1.1" xmlns="http://www.w3.org/2000/svg" width="80" height="80">
<path d="M0 0 C26.4 0 52.8 0 80 0 C80 26.4 80 52.8 80 80 C53.6 80 27.2 80 0 80 C0 53.6 0 27.2 0 0 Z " fill="#FEFEFE" transform="translate(0,0)"/>
<path d="M0 0 C3.30883795 1.69289384 5.34165852 3.49296619 7.6875 6.375 C7.9375 9.125 7.9375 9.125 7.6875 11.375 C8.1825 11.87 8.1825 11.87 8.6875 12.375 C8.82865161 15.04558851 8.72997107 17.69932238 8.6875 20.375 C8.0275 20.375 7.3675 20.375 6.6875 20.375 C6.6875 22.355 6.6875 24.335 6.6875 26.375 C8.9975 26.375 11.3075 26.375 13.6875 26.375 C13.6875 27.695 13.6875 29.015 13.6875 30.375 C14.6775 30.375 15.6675 30.375 16.6875 30.375 C16.6875 31.695 16.6875 33.015 16.6875 34.375 C20.6475 34.375 24.6075 34.375 28.6875 34.375 C28.6875 33.055 28.6875 31.735 28.6875 30.375 C29.6775 30.375 30.6675 30.375 31.6875 30.375 C31.6875 29.055 31.6875 27.735 31.6875 26.375 C32.3475 26.375 33.0075 26.375 33.6875 26.375 C33.6875 27.695 33.6875 29.015 33.6875 30.375 C34.6775 30.375 35.6675 30.375 36.6875 30.375 C36.6875 38.295 36.6875 46.215 36.6875 54.375 C28.7675 54.375 20.8475 54.375 12.6875 54.375 C12.6875 55.035 12.6875 55.695 12.6875 56.375 C3.4475 56.375 -5.7925 56.375 -15.3125 56.375 C-15.3125 55.715 -15.3125 55.055 -15.3125 54.375 C-23.2325 54.375 -31.1525 54.375 -39.3125 54.375 C-39.3125 46.455 -39.3125 38.535 -39.3125 30.375 C-38.3225 30.375 -37.3325 30.375 -36.3125 30.375 C-36.3125 29.055 -36.3125 27.735 -36.3125 26.375 C-35.6525 26.375 -34.9925 26.375 -34.3125 26.375 C-34.3125 27.695 -34.3125 29.015 -34.3125 30.375 C-33.3225 30.375 -32.3325 30.375 -31.3125 30.375 C-31.3125 31.695 -31.3125 33.015 -31.3125 34.375 C-27.3525 34.375 -23.3925 34.375 -19.3125 34.375 C-19.3125 33.055 -19.3125 31.735 -19.3125 30.375 C-18.3225 30.375 -17.3325 30.375 -16.3125 30.375 C-16.3125 29.055 -16.3125 27.735 -16.3125 26.375 C-14.0025 26.375 -11.6925 26.375 -9.3125 26.375 C-9.3125 24.395 -9.3125 22.415 -9.3125 20.375 C-9.9725 20.375 -10.6325 20.375 -11.3125 20.375 C-11.41015625 14.22265625 -11.41015625 14.22265625 -11.3125 12.375 C-10.9825 12.045 -10.6525 11.715 -10.3125 11.375 C-10.415625 10.4675 -10.51875 9.56 -10.625 8.625 C-10.27916488 5.02831475 -10.05302127 4.73471258 -7.4375 2.5625 C-2.72475627 -0.73642061 -2.72475627 -0.73642061 0 0 Z " fill="#484E53" transform="translate(41.3125,15.625)"/>
<path d="M0 0 C6.6 0 13.2 0 20 0 C20 5.28 20 10.56 20 16 C18.02 16 16.04 16 14 16 C14 11.38 14 6.76 14 2 C11.36 2 8.72 2 6 2 C6 6.62 6 11.24 6 16 C4.02 16 2.04 16 0 16 C0 10.72 0 5.44 0 0 Z " fill="#FEFEFE" transform="translate(30,50)"/>
<path d="M0 0 C6.09411765 2.14117647 6.09411765 2.14117647 8 5 C7.57894737 9.42105263 7.57894737 9.42105263 6 11 C4.35769636 11.1245486 2.70947724 11.17568524 1.0625 11.1875 C0.16660156 11.20167969 -0.72929688 11.21585938 -1.65234375 11.23046875 C-4 11 -4 11 -6 9 C-5.9375 6.625 -5.9375 6.625 -5 4 C-2.4375 1.6875 -2.4375 1.6875 0 0 Z " fill="#F9FBFB" transform="translate(39,17)"/>
<path d="M0 0 C1.32 0 2.64 0 4 0 C4 6.6 4 13.2 4 20 C2.68 20 1.36 20 0 20 C0 13.4 0 6.8 0 0 Z " fill="#FFFFFF" transform="translate(72,48)"/>
<path d="M0 0 C1.32 0 2.64 0 4 0 C4 6.6 4 13.2 4 20 C2.68 20 1.36 20 0 20 C0 13.4 0 6.8 0 0 Z " fill="#FEFFFF" transform="translate(4,48)"/>
<path d="M0 0 C6.6 0 13.2 0 20 0 C20 1.32 20 2.64 20 4 C13.4 4 6.8 4 0 4 C0 2.68 0 1.36 0 0 Z " fill="#FDFFFF" transform="translate(30,44)"/>
<path d="M0 0 C1.32 0 2.64 0 4 0 C4 6.6 4 13.2 4 20 C3.34 20 2.68 20 2 20 C2 19.34 2 18.68 2 18 C1.34 18 0.68 18 0 18 C0 12.06 0 6.12 0 0 Z " fill="#FEFFFF" transform="translate(52,48)"/>
<path d="M0 0 C1.32 0 2.64 0 4 0 C4 5.94 4 11.88 4 18 C3.34 18 2.68 18 2 18 C2 18.66 2 19.32 2 20 C1.34 20 0.68 20 0 20 C0 13.4 0 6.8 0 0 Z " fill="#FDFFFE" transform="translate(24,48)"/>
<path d="M0 0 C3.96 0 7.92 0 12 0 C12 1.98 12 3.96 12 6 C8.04 6 4.08 6 0 6 C0 4.02 0 2.04 0 0 Z " fill="#FFFFFF" transform="translate(34,36)"/>
<path d="M0 0 C5.28 0 10.56 0 16 0 C16 1.32 16 2.64 16 4 C10.72 4 5.44 4 0 4 C0 2.68 0 1.36 0 0 Z " fill="#FEFFFF" transform="translate(32,30)"/>
<path d="M0 0 C3.30883795 1.69289384 5.34165852 3.49296619 7.6875 6.375 C8 9.1875 8 9.1875 7.6875 11.375 C5.6875 10.375 5.6875 10.375 4.8125 8 C3.51996948 4.98409545 2.63824834 3.80822062 -0.3125 2.375 C-3.45009973 3.19675231 -5.01505875 4.07755875 -7.3125 6.375 C-7.47937448 8.95854218 -7.47937448 8.95854218 -7.3125 11.375 C-8.3025 11.375 -9.2925 11.375 -10.3125 11.375 C-10.6875 8.6875 -10.6875 8.6875 -10.3125 5.375 C-7.64299346 2.2605757 -4.19734582 -1.13441779 0 0 Z " fill="#57585A" transform="translate(41.3125,15.625)"/>
<path d="M0 0 C1.32 0 2.64 0 4 0 C4 3.96 4 7.92 4 12 C2.68 12 1.36 12 0 12 C0 8.04 0 4.08 0 0 Z " fill="#FFFEFF" transform="translate(38,54)"/>
<path d="M0 0 C2.64 0 5.28 0 8 0 C8 3.3 8 6.6 8 10 C7.34 10 6.68 10 6 10 C6 7.36 6 4.72 6 2 C4.68 2 3.36 2 2 2 C2 4.64 2 7.28 2 10 C1.34 10 0.68 10 0 10 C0 6.7 0 3.4 0 0 Z " fill="#3E464E" transform="translate(36,52)"/>
<path d="M0 0 C3.96 0 7.92 0 12 0 C12 1.32 12 2.64 12 4 C11.34 4 10.68 4 10 4 C10 3.34 10 2.68 10 2 C9.34 2 8.68 2 8 2 C8 2.66 8 3.32 8 4 C6.68 4 5.36 4 4 4 C4 3.34 4 2.68 4 2 C3.34 2 2.68 2 2 2 C2 2.66 2 3.32 2 4 C1.34 4 0.68 4 0 4 C0 2.68 0 1.36 0 0 Z " fill="#FDFFFF" transform="translate(58,64)"/>
<path d="M0 0 C3.96 0 7.92 0 12 0 C12 1.32 12 2.64 12 4 C11.34 4 10.68 4 10 4 C10 3.34 10 2.68 10 2 C9.34 2 8.68 2 8 2 C8 2.66 8 3.32 8 4 C6.68 4 5.36 4 4 4 C4 3.34 4 2.68 4 2 C3.34 2 2.68 2 2 2 C2 2.66 2 3.32 2 4 C1.34 4 0.68 4 0 4 C0 2.68 0 1.36 0 0 Z " fill="#FEFFFF" transform="translate(10,64)"/>
<path d="M0 0 C3.96 0 7.92 0 12 0 C12 1.32 12 2.64 12 4 C11.34 4 10.68 4 10 4 C10 3.34 10 2.68 10 2 C9.34 2 8.68 2 8 2 C8 2.66 8 3.32 8 4 C6.68 4 5.36 4 4 4 C4 3.34 4 2.68 4 2 C3.34 2 2.68 2 2 2 C2 2.66 2 3.32 2 4 C1.34 4 0.68 4 0 4 C0 2.68 0 1.36 0 0 Z " fill="#FFFFFF" transform="translate(58,58)"/>
<path d="M0 0 C3.96 0 7.92 0 12 0 C12 1.32 12 2.64 12 4 C11.34 4 10.68 4 10 4 C10 3.34 10 2.68 10 2 C9.34 2 8.68 2 8 2 C8 2.66 8 3.32 8 4 C6.68 4 5.36 4 4 4 C4 3.34 4 2.68 4 2 C3.34 2 2.68 2 2 2 C2 2.66 2 3.32 2 4 C1.34 4 0.68 4 0 4 C0 2.68 0 1.36 0 0 Z " fill="#FBFFFF" transform="translate(10,58)"/>
<path d="M0 0 C3.96 0 7.92 0 12 0 C12 1.32 12 2.64 12 4 C11.34 4 10.68 4 10 4 C10 3.34 10 2.68 10 2 C9.34 2 8.68 2 8 2 C8 2.66 8 3.32 8 4 C6.68 4 5.36 4 4 4 C4 3.34 4 2.68 4 2 C3.34 2 2.68 2 2 2 C2 2.66 2 3.32 2 4 C1.34 4 0.68 4 0 4 C0 2.68 0 1.36 0 0 Z " fill="#FFFFFF" transform="translate(58,52)"/>
<path d="M0 0 C3.96 0 7.92 0 12 0 C12 1.32 12 2.64 12 4 C11.34 4 10.68 4 10 4 C10 3.34 10 2.68 10 2 C9.34 2 8.68 2 8 2 C8 2.66 8 3.32 8 4 C6.68 4 5.36 4 4 4 C4 3.34 4 2.68 4 2 C3.34 2 2.68 2 2 2 C2 2.66 2 3.32 2 4 C1.34 4 0.68 4 0 4 C0 2.68 0 1.36 0 0 Z " fill="#FBFFFF" transform="translate(10,52)"/>
</svg>
