<?xml version="1.0" encoding="UTF-8"?>
<svg version="1.1" xmlns="http://www.w3.org/2000/svg" width="80" height="80">
<path d="M0 0 C26.4 0 52.8 0 80 0 C80 26.4 80 52.8 80 80 C53.6 80 27.2 80 0 80 C0 53.6 0 27.2 0 0 Z " fill="#FDFEFE" transform="translate(0,0)"/>
<path d="M0 0 C0.66 0 1.32 0 2 0 C4 3 4 3 4 7 C9.28 7 14.56 7 20 7 C20.33 5.35 20.66 3.7 21 2 C21.33 1.34 21.66 0.68 22 0 C22.66 0 23.32 0 24 0 C27.04424687 4.56637031 26.12783166 8.56715459 26 14 C30.62 14 35.24 14 40 14 C40 15.32 40 16.64 40 18 C40.66 18 41.32 18 42 18 C42 20.64 42 23.28 42 26 C43.32 26 44.64 26 46 26 C46 35.24 46 44.48 46 54 C23.56 54 1.12 54 -22 54 C-22 44.76 -22 35.52 -22 26 C-20.68 26 -19.36 26 -18 26 C-18 23.36 -18 20.72 -18 18 C-17.34 18 -16.68 18 -16 18 C-16 16.68 -16 15.36 -16 14 C-11.38 14 -6.76 14 -2 14 C-2.04125 12.246875 -2.0825 10.49375 -2.125 8.6875 C-2.25 3.375 -2.25 3.375 0 0 Z " fill="#767A7E" transform="translate(28,20)"/>
<path d="M0 0 C0.66 0 1.32 0 2 0 C5.04424687 4.56637031 4.12783166 8.56715459 4 14 C8.62 14 13.24 14 18 14 C18 15.32 18 16.64 18 18 C18.66 18 19.32 18 20 18 C20 20.64 20 23.28 20 26 C21.32 26 22.64 26 24 26 C24 34.91 24 43.82 24 53 C21.69 53 19.38 53 17 53 C17.33 48.71 17.66 44.42 18 40 C18.66 40 19.32 40 20 40 C20 43.96 20 47.92 20 52 C20.66 52 21.32 52 22 52 C22 45.73 22 39.46 22 33 C19.69 33 17.38 33 15 33 C15.33 31.35 15.66 29.7 16 28 C15.34 28 14.68 28 14 28 C14 27.34 14 26.68 14 26 C15.32 26 16.64 26 18 26 C18 24.02 18 22.04 18 20 C14.7 20 11.4 20 8 20 C8 21.98 8 23.96 8 26 C9.32 26.33 10.64 26.66 12 27 C10.68 27 9.36 27 8 27 C8 28.65 8 30.3 8 32 C9.485 32.495 9.485 32.495 11 33 C10.01 33 9.02 33 8 33 C8.33 39.6 8.66 46.2 9 53 C5.7 53 2.4 53 -1 53 C-0.67 44.42 -0.34 35.84 0 27 C-1.65 27 -3.3 27 -5 27 C-5 26.67 -5 26.34 -5 26 C-3.35 26 -1.7 26 0 26 C0 23.69 0 21.38 0 19 C-1.98 19 -3.96 19 -6 19 C-4.68 18.67 -3.36 18.34 -2 18 C-2 16.68 -2 15.36 -2 14 C-7.28 14 -12.56 14 -18 14 C-18 13.67 -18 13.34 -18 13 C-16.02 12.67 -14.04 12.34 -12 12 C-12 11.01 -12 10.02 -12 9 C-14.97 8.505 -14.97 8.505 -18 8 C-18 7.67 -18 7.34 -18 7 C-12.72 7 -7.44 7 -2 7 C-1.67 5.35 -1.34 3.7 -1 2 C-0.67 1.34 -0.34 0.68 0 0 Z " fill="#74797D" transform="translate(50,20)"/>
<path d="M0 0 C2.64 0 5.28 0 8 0 C8 2.64 8 5.28 8 8 C8.99 8.33 9.98 8.66 11 9 C10.01 9 9.02 9 8 9 C8 13.29 8 17.58 8 22 C8.99 22.33 9.98 22.66 11 23 C10.01 23 9.02 23 8 23 C8 24.65 8 26.3 8 28 C8.99 28.33 9.98 28.66 11 29 C10.01 29 9.02 29 8 29 C8 30.65 8 32.3 8 34 C9.485 34.495 9.485 34.495 11 35 C4.07 35 -2.86 35 -10 35 C-10 26.09 -10 17.18 -10 8 C-9.34 8 -8.68 8 -8 8 C-6.94443549 13.7626003 -7.05168362 19.1059076 -7.4375 24.9375 C-7.48970703 25.81212891 -7.54191406 26.68675781 -7.59570312 27.58789062 C-7.7242021 29.72564632 -7.86122641 31.86288669 -8 34 C-7.34 34 -6.68 34 -6 34 C-6.02320313 33.01257813 -6.04640625 32.02515625 -6.0703125 31.0078125 C-6.08835937 29.72648437 -6.10640625 28.44515625 -6.125 27.125 C-6.14820313 25.84882812 -6.17140625 24.57265625 -6.1953125 23.2578125 C-6 20 -6 20 -4 18 C-1 17.75 -1 17.75 2 18 C4 20 4 20 4.1953125 23.2578125 C4.16050781 25.17207031 4.16050781 25.17207031 4.125 27.125 C4.10695313 28.40632813 4.08890625 29.68765625 4.0703125 31.0078125 C4.04710937 31.99523437 4.02390625 32.98265625 4 34 C4.66 34 5.32 34 6 34 C6 27.73 6 21.46 6 15 C3.69 15 1.38 15 -1 15 C-0.67 12.69 -0.34 10.38 0 8 C1.98 8 3.96 8 6 8 C6 5.69 6 3.38 6 1 C4.02 1 2.04 1 0 1 C0 0.67 0 0.34 0 0 Z " fill="#46484C" transform="translate(16,38)"/>
<path d="M0 0 C4.29 0 8.58 0 13 0 C13 1.32 13 2.64 13 4 C13.66 4 14.32 4 15 4 C15 6.64 15 9.28 15 12 C16.32 12 17.64 12 19 12 C19 20.91 19 29.82 19 39 C16.69 39 14.38 39 12 39 C12.33 34.71 12.66 30.42 13 26 C13.66 26 14.32 26 15 26 C15 29.96 15 33.92 15 38 C15.66 38 16.32 38 17 38 C17 31.73 17 25.46 17 19 C14.69 19 12.38 19 10 19 C10.33 17.35 10.66 15.7 11 14 C10.34 14 9.68 14 9 14 C9 13.34 9 12.68 9 12 C10.32 12 11.64 12 13 12 C13 10.02 13 8.04 13 6 C9.7 6 6.4 6 3 6 C3 7.98 3 9.96 3 12 C4.32 12.33 5.64 12.66 7 13 C5.68 13 4.36 13 3 13 C3 14.65 3 16.3 3 18 C3.99 18.33 4.98 18.66 6 19 C5.01 19 4.02 19 3 19 C3.33 25.6 3.66 32.2 4 39 C2.68 38.67 1.36 38.34 0 38 C0.33 36.35 0.66 34.7 1 33 C-0.32 32.67 -1.64 32.34 -3 32 C-1.68 32 -0.36 32 1 32 C1 30.35 1 28.7 1 27 C0.01 26.67 -0.98 26.34 -2 26 C-1.01 26 -0.02 26 1 26 C1 21.71 1 17.42 1 13 C0.01 12.67 -0.98 12.34 -2 12 C-1.01 12 -0.02 12 1 12 C1 9.36 1 6.72 1 4 C4.3 4 7.6 4 11 4 C11 3.01 11 2.02 11 1 C7.37 1 3.74 1 0 1 C0 0.67 0 0.34 0 0 Z " fill="#696E70" transform="translate(55,34)"/>
<path d="M0 0 C6.6 0 13.2 0 20 0 C20 7.92 20 15.84 20 24 C18.68 24 17.36 24 16 24 C15.95101562 22.79601562 15.90203125 21.59203125 15.8515625 20.3515625 C15.77653657 18.77601802 15.70098867 17.20049834 15.625 15.625 C15.5940625 14.8309375 15.563125 14.036875 15.53125 13.21875 C15.48183579 8.63332625 15.48183579 8.63332625 13 5 C10 4.66666667 10 4.66666667 7 5 C3.97906785 8.02093215 4.53323166 11.56372072 4.375 15.625 C4.33632813 16.42679688 4.29765625 17.22859375 4.2578125 18.0546875 C4.16346069 20.03607556 4.08063785 22.01800645 4 24 C2.68 24 1.36 24 0 24 C0 16.08 0 8.16 0 0 Z " fill="#FAFAFA" transform="translate(30,48)"/>
<path d="M0 0 C3.3 0 6.6 0 10 0 C10 1.98 10 3.96 10 6 C8.68 6 7.36 6 6 6 C6 6.66 6 7.32 6 8 C6.66 8 7.32 8 8 8 C8 9.32 8 10.64 8 12 C10.97 12.495 10.97 12.495 14 13 C14 19.27 14 25.54 14 32 C13.34 32 12.68 32 12 32 C11.93941406 31.00097656 11.87882812 30.00195312 11.81640625 28.97265625 C11.69072266 27.03712891 11.69072266 27.03712891 11.5625 25.0625 C11.48128906 23.77472656 11.40007812 22.48695312 11.31640625 21.16015625 C11.35080812 18.13976043 11.35080812 18.13976043 10 17 C7 16.83333333 7 16.83333333 4 17 C2.05909174 18.94090826 2.60080565 22.47293902 2.4375 25.0625 C2.35371094 26.35285156 2.26992188 27.64320312 2.18359375 28.97265625 C2.12300781 29.97167969 2.06242187 30.97070312 2 32 C1.34 32 0.68 32 0 32 C0 21.44 0 10.88 0 0 Z " fill="#CBCED0" transform="translate(58,40)"/>
<path d="M0 0 C5.28 0 10.56 0 16 0 C16 1.32 16 2.64 16 4 C16.66 4.33 17.32 4.66 18 5 C18 7.31 18 9.62 18 12 C16.56359829 12.19573608 15.12580496 12.38127816 13.6875 12.5625 C12.88699219 12.66691406 12.08648437 12.77132812 11.26171875 12.87890625 C9 13 9 13 6 12 C6 9.69 6 7.38 6 5 C3.03 4.505 3.03 4.505 0 4 C0 2.68 0 1.36 0 0 Z " fill="#595C62" transform="translate(32,34)"/>
<path d="M0 0 C0.94875 0.04125 1.8975 0.0825 2.875 0.125 C3.535 1.445 4.195 2.765 4.875 4.125 C4.215 4.125 3.555 4.125 2.875 4.125 C2.88660156 4.97964844 2.89820312 5.83429687 2.91015625 6.71484375 C2.91917969 7.81957031 2.92820312 8.92429687 2.9375 10.0625 C2.94910156 11.16464844 2.96070312 12.26679687 2.97265625 13.40234375 C2.875 16.125 2.875 16.125 1.875 17.125 C-0.79558851 17.26615161 -3.44932238 17.16747107 -6.125 17.125 C-6.01130789 14.66566009 -5.88457349 12.2082091 -5.75 9.75 C-5.7190625 9.05132812 -5.688125 8.35265625 -5.65625 7.6328125 C-5.22795996 0.2091184 -5.22795996 0.2091184 0 0 Z " fill="#454A4F" transform="translate(65.125,55.875)"/>
<path d="M0 0 C4.55555556 0.55555556 4.55555556 0.55555556 6 2 C6.07319621 4.69654854 6.09242537 7.36691458 6.0625 10.0625 C6.05798828 10.82111328 6.05347656 11.57972656 6.04882812 12.36132812 C6.0370068 14.24091871 6.01907078 16.12046899 6 18 C3.36 18 0.72 18 -2 18 C-2.05382106 15.37472811 -2.09358313 12.75055287 -2.125 10.125 C-2.14175781 9.37863281 -2.15851562 8.63226563 -2.17578125 7.86328125 C-2.1933959 5.90805539 -2.10320189 3.95257979 -2 2 C-1.34 1.34 -0.68 0.68 0 0 Z " fill="#F9FAFA" transform="translate(38,54)"/>
<path d="M0 0 C2.64 0 5.28 0 8 0 C8 2.64 8 5.28 8 8 C8.99 8.33 9.98 8.66 11 9 C10.01 9 9.02 9 8 9 C8 13.29 8 17.58 8 22 C8.99 22.33 9.98 22.66 11 23 C10.01 23 9.02 23 8 23 C8 24.65 8 26.3 8 28 C8.99 28.33 9.98 28.66 11 29 C10.01 29 9.02 29 8 29 C8 30.65 8 32.3 8 34 C8.99 34.33 9.98 34.66 11 35 C9.02 35 7.04 35 5 35 C5.33 28.4 5.66 21.8 6 15 C3.69 15 1.38 15 -1 15 C-0.67 12.69 -0.34 10.38 0 8 C1.98 8 3.96 8 6 8 C6 5.69 6 3.38 6 1 C4.02 1 2.04 1 0 1 C0 0.67 0 0.34 0 0 Z " fill="#585C5F" transform="translate(16,38)"/>
<path d="M0 0 C2.00484471 1.52863178 2.89129515 2.39320093 3.34057617 4.90112305 C3.32486572 5.59761963 3.30915527 6.29411621 3.29296875 7.01171875 C3.28330078 7.76904297 3.27363281 8.52636719 3.26367188 9.30664062 C3.23853516 10.09232422 3.21339844 10.87800781 3.1875 11.6875 C3.17396484 12.48478516 3.16042969 13.28207031 3.14648438 14.10351562 C3.11117089 16.06929967 3.05736447 18.03473582 3 20 C3.99 20.33 4.98 20.66 6 21 C0.72 21 -4.56 21 -10 21 C-9.9131197 18.0610493 -9.80626233 15.12518711 -9.6875 12.1875 C-9.66494141 11.35412109 -9.64238281 10.52074219 -9.61914062 9.66210938 C-9.5659668 8.45844727 -9.5659668 8.45844727 -9.51171875 7.23046875 C-9.47244263 6.12288208 -9.47244263 6.12288208 -9.43237305 4.99291992 C-8.31046746 -0.17823497 -4.72587615 -0.59073452 0 0 Z M-5 2 C-7.41122368 3.96535717 -7.41122368 3.96535717 -7.1953125 7.6953125 C-7.182009 9.17200108 -7.15814835 10.64862358 -7.125 12.125 C-7.11597656 12.87910156 -7.10695312 13.63320312 -7.09765625 14.41015625 C-7.0740687 16.27357254 -7.03819719 18.13682593 -7 20 C-4.36 20 -1.72 20 1 20 C1.05382106 17.37472811 1.09358313 14.75055287 1.125 12.125 C1.14175781 11.37863281 1.15851562 10.63226563 1.17578125 9.86328125 C1.1933959 7.90805539 1.10320189 5.95257979 1 4 C0.34 3.34 -0.32 2.68 -1 2 C-2.32 2 -3.64 2 -5 2 Z " fill="#41474C" transform="translate(43,52)"/>
<path d="M0 0 C4.62 0 9.24 0 14 0 C14 5.94 14 11.88 14 18 C13.34 18 12.68 18 12 18 C11.93941406 17.00097656 11.87882812 16.00195312 11.81640625 14.97265625 C11.69072266 13.03712891 11.69072266 13.03712891 11.5625 11.0625 C11.48128906 9.77472656 11.40007812 8.48695312 11.31640625 7.16015625 C11.35080812 4.13976043 11.35080812 4.13976043 10 3 C7 2.83333333 7 2.83333333 4 3 C2.05909174 4.94090826 2.60080565 8.47293902 2.4375 11.0625 C2.35371094 12.35285156 2.26992188 13.64320312 2.18359375 14.97265625 C2.12300781 15.97167969 2.06242187 16.97070312 2 18 C1.34 18 0.68 18 0 18 C0 12.06 0 6.12 0 0 Z " fill="#F7F9FA" transform="translate(58,54)"/>
<path d="M0 0 C4.62 0 9.24 0 14 0 C14 5.94 14 11.88 14 18 C13.34 18 12.68 18 12 18 C11.93941406 17.00097656 11.87882812 16.00195312 11.81640625 14.97265625 C11.69072266 13.03712891 11.69072266 13.03712891 11.5625 11.0625 C11.48128906 9.77472656 11.40007813 8.48695312 11.31640625 7.16015625 C11.35080812 4.13976043 11.35080812 4.13976043 10 3 C7 2.83333333 7 2.83333333 4 3 C2.05909174 4.94090826 2.60080565 8.47293902 2.4375 11.0625 C2.35371094 12.35285156 2.26992187 13.64320312 2.18359375 14.97265625 C2.12300781 15.97167969 2.06242188 16.97070312 2 18 C1.34 18 0.68 18 0 18 C0 12.06 0 6.12 0 0 Z " fill="#F7F9FA" transform="translate(8,54)"/>
<path d="M0 0 C2.64 0 5.28 0 8 0 C8 0.33 8 0.66 8 1 C6.02 1 4.04 1 2 1 C2 3.31 2 5.62 2 8 C3.32 8.33 4.64 8.66 6 9 C4.68 9 3.36 9 2 9 C2 10.65 2 12.3 2 14 C2.99 14.33 3.98 14.66 5 15 C4.01 15 3.02 15 2 15 C2.33 21.6 2.66 28.2 3 35 C1.68 34.67 0.36 34.34 -1 34 C-0.67 32.35 -0.34 30.7 0 29 C-1.32 28.67 -2.64 28.34 -4 28 C-2.68 28 -1.36 28 0 28 C0 26.35 0 24.7 0 23 C-0.99 22.67 -1.98 22.34 -3 22 C-2.01 22 -1.02 22 0 22 C0 17.71 0 13.42 0 9 C-0.99 8.67 -1.98 8.34 -3 8 C-2.01 8 -1.02 8 0 8 C0 5.36 0 2.72 0 0 Z " fill="#41454A" transform="translate(56,38)"/>
<path d="M0 0 C0.66 0 1.32 0 2 0 C2 8.91 2 17.82 2 27 C-0.31 27 -2.62 27 -5 27 C-4.67 22.71 -4.34 18.42 -4 14 C-3.34 14 -2.68 14 -2 14 C-2 17.96 -2 21.92 -2 26 C-1.34 26 -0.68 26 0 26 C-0.03552979 25.42556152 -0.07105957 24.85112305 -0.10766602 24.25927734 C-0.26624021 21.63155213 -0.41445034 19.00333834 -0.5625 16.375 C-0.61857422 15.47136719 -0.67464844 14.56773438 -0.73242188 13.63671875 C-0.99066718 8.91943783 -1.04292737 4.65068353 0 0 Z " fill="#414549" transform="translate(72,46)"/>
<path d="M0 0 C5.28 0 10.56 0 16 0 C16 2.31 16 4.62 16 7 C10.72 7 5.44 7 0 7 C0 6.67 0 6.34 0 6 C1.98 5.67 3.96 5.34 6 5 C6 4.01 6 3.02 6 2 C3.03 1.505 3.03 1.505 0 1 C0 0.67 0 0.34 0 0 Z " fill="#949B9F" transform="translate(32,27)"/>
<path d="M0 0 C5.28 0 10.56 0 16 0 C16 1.32 16 2.64 16 4 C10.72 4 5.44 4 0 4 C0 2.68 0 1.36 0 0 Z " fill="#EBEDEE" transform="translate(32,34)"/>
<path d="M0 0 C1.98 0 3.96 0 6 0 C6 3.3 6 6.6 6 10 C4.02 10 2.04 10 0 10 C0 6.7 0 3.4 0 0 Z " fill="#F5F8F8" transform="translate(62,62)"/>
<path d="M0 0 C1.98 0 3.96 0 6 0 C6 3.3 6 6.6 6 10 C4.02 10 2.04 10 0 10 C0 6.7 0 3.4 0 0 Z " fill="#F6F8F8" transform="translate(12,62)"/>
<path d="M0 0 C3.3 0 6.6 0 10 0 C10 1.98 10 3.96 10 6 C6.7 6 3.4 6 0 6 C0 4.02 0 2.04 0 0 Z " fill="#CBCED0" transform="translate(12,40)"/>
<path d="M0 0 C0 0.66 0 1.32 0 2 C0.66 2 1.32 2 2 2 C2 3.32 2 4.64 2 6 C4.97 6.495 4.97 6.495 8 7 C8 7.33 8 7.66 8 8 C3.38 8 -1.24 8 -6 8 C-6 5.69 -6 3.38 -6 1 C-3.92446352 0.4465236 -2.15634036 0 0 0 Z " fill="#9EA0A3" transform="translate(64,46)"/>
<path d="M0 0 C0.66 0 1.32 0 2 0 C3.01894076 5.84888043 3.11798453 11.50919169 3.0625 17.4375 C3.05798828 18.35982422 3.05347656 19.28214844 3.04882812 20.23242188 C3.03713938 22.48835048 3.02075455 24.74413967 3 27 C2.01 27 1.02 27 0 27 C0 18.09 0 9.18 0 0 Z " fill="#3F454B" transform="translate(6,46)"/>
<path d="M0 0 C1.32 0 2.64 0 4 0 C4 3.96 4 7.92 4 12 C2.68 12 1.36 12 0 12 C0 8.04 0 4.08 0 0 Z " fill="#F7F9F9" transform="translate(52,48)"/>
<path d="M0 0 C1.32 0 2.64 0 4 0 C4 3.96 4 7.92 4 12 C2.68 12 1.36 12 0 12 C0 8.04 0 4.08 0 0 Z " fill="#F7F9F9" transform="translate(24,48)"/>
<path d="M0 0 C1.98 0 3.96 0 6 0 C6 1.98 6 3.96 6 6 C4.02 6 2.04 6 0 6 C0 4.02 0 2.04 0 0 Z " fill="#F1F3F4" transform="translate(44,40)"/>
<path d="M0 0 C1.98 0 3.96 0 6 0 C6 1.98 6 3.96 6 6 C4.02 6 2.04 6 0 6 C0 4.02 0 2.04 0 0 Z " fill="#F0F3F4" transform="translate(30,40)"/>
<path d="M0 0 C1.32 0.66 2.64 1.32 4 2 C4 2.66 4 3.32 4 4 C3.34 4 2.68 4 2 4 C2 4.66 2 5.32 2 6 C0.02 6 -1.96 6 -4 6 C-3.6875 4.125 -3.6875 4.125 -3 2 C-2.01 1.34 -1.02 0.68 0 0 Z " fill="#898B90" transform="translate(16,56)"/>
<path d="M0 0 C1.32 0.66 2.64 1.32 4 2 C4 2.66 4 3.32 4 4 C3.34 4 2.68 4 2 4 C2 4.66 2 5.32 2 6 C0.02 6 -1.96 6 -4 6 C-3.6875 4.125 -3.6875 4.125 -3 2 C-2.01 1.34 -1.02 0.68 0 0 Z " fill="#8B8F92" transform="translate(66,56)"/>
<path d="M0 0 C0.99 0.103125 1.98 0.20625 3 0.3125 C3.66 1.3025 4.32 2.2925 5 3.3125 C4.01 3.3125 3.02 3.3125 2 3.3125 C-1.43156089 3.82723413 -3.04076956 4.3396797 -6 6.3125 C-5.17886899 2.20684495 -4.47585821 0.46623523 0 0 Z " fill="#5B5B60" transform="translate(40,51.6875)"/>
<path d="M0 0 C1.32 0 2.64 0 4 0 C4 1.98 4 3.96 4 6 C2.68 6 1.36 6 0 6 C0 4.02 0 2.04 0 0 Z " fill="#F0F3F4" transform="translate(52,40)"/>
<path d="M0 0 C1.32 0 2.64 0 4 0 C4 1.98 4 3.96 4 6 C2.68 6 1.36 6 0 6 C0 4.02 0 2.04 0 0 Z " fill="#F1F3F4" transform="translate(38,40)"/>
<path d="M0 0 C1.32 0 2.64 0 4 0 C4 1.98 4 3.96 4 6 C2.68 6 1.36 6 0 6 C0 4.02 0 2.04 0 0 Z " fill="#EFF3F4" transform="translate(24,40)"/>
<path d="M0 0 C0.66 0 1.32 0 2 0 C2.66 1.32 3.32 2.64 4 4 C3.34 4 2.68 4 2 4 C2 5.32 2 6.64 2 8 C1.34 8 0.68 8 0 8 C-1.125 5.6875 -1.125 5.6875 -2 3 C-1.34 2.01 -0.68 1.02 0 0 Z " fill="#878889" transform="translate(50,20)"/>
</svg>
